<?xml version="1.0" standalone="no"?>
<!DOCTYPE svg PUBLIC "-//W3C//DTD SVG 20010904//EN"
 "http://www.w3.org/TR/2001/REC-SVG-20010904/DTD/svg10.dtd">
<svg version="1.0" xmlns="http://www.w3.org/2000/svg"
 width="666.000000pt" height="666.000000pt" viewBox="0 0 666.000000 666.000000"
 preserveAspectRatio="xMidYMid meet">
<metadata>
Created by potrace 1.11, written by Peter Selinger 2001-2013
</metadata>
<g transform="translate(0.000000,666.000000) scale(0.100000,-0.100000)"
fill="#000000" stroke="none">
<path d="M0 3330 l0 -3330 3330 0 3330 0 0 3330 0 3330 -3330 0 -3330 0 0
-3330z m3796 -1882 c5 -23 3 -27 -15 -25 -18 1 -25 14 -42 72 -12 38 -27 90
-34 115 -8 25 -89 315 -180 645 -91 330 -214 771 -272 980 -58 209 -198 720
-312 1136 -191 698 -206 758 -192 778 13 21 51 -110 528 -1826 283 -1016 516
-1860 519 -1875z m-992 1025 c5 -819 5 -833 -14 -821 -10 7 -21 21 -25 33 -3
11 -10 667 -16 1458 l-10 1438 23 19 23 18 6 -656 c4 -362 9 -1032 13 -1489z
m1138 -289 l3 -541 -21 9 c-21 10 -21 14 -28 486 -3 263 -9 920 -12 1461 l-7
984 24 18 24 18 7 -947 c3 -521 8 -1191 10 -1488z"/>
</g>
</svg>
