<?xml version="1.0" standalone="no"?>
<!DOCTYPE svg PUBLIC "-//W3C//DTD SVG 20010904//EN"
 "http://www.w3.org/TR/2001/REC-SVG-20010904/DTD/svg10.dtd">
<svg version="1.0" xmlns="http://www.w3.org/2000/svg"
 width="333.000000pt" height="333.000000pt" viewBox="0 0 333.000000 333.000000"
 preserveAspectRatio="xMidYMid meet">
<metadata>
Created by potrace 1.11, written by Peter Selinger 2001-2013
</metadata>
<g transform="translate(0.000000,333.000000) scale(0.100000,-0.100000)"
fill="#000000" stroke="none">
<path d="M0 1665 l0 -1665 1665 0 1665 0 0 1665 0 1665 -1665 0 -1665 0 0
-1665z m1443 731 c49 -18 74 -41 100 -91 18 -35 21 -63 25 -222 l4 -183 -60 0
-60 0 -3 158 c-3 129 -7 163 -21 184 -23 35 -72 45 -121 25 -48 -21 -57 -57
-57 -227 0 -109 4 -143 19 -175 10 -22 75 -100 144 -173 162 -170 160 -164
155 -445 -3 -186 -5 -205 -25 -243 -12 -23 -39 -53 -60 -65 -33 -21 -51 -24
-133 -24 -78 0 -101 4 -130 21 -81 47 -100 115 -100 354 l0 170 64 0 65 0 3
-190 c3 -180 4 -191 25 -211 34 -34 108 -31 140 5 22 26 23 33 23 202 0 143
-3 181 -16 207 -10 18 -60 77 -113 132 -147 152 -169 183 -182 251 -17 90 -7
390 14 434 28 59 56 85 114 106 49 17 137 17 186 0z m407 -11 c0 -9 220 -1060
224 -1070 3 -5 5 234 5 533 l1 542 55 0 55 0 0 -735 0 -735 -65 0 c-36 0 -65
2 -65 5 0 15 -242 1033 -250 1050 -5 12 -9 -190 -9 -517 l-1 -538 -55 0 -55 0
0 735 0 735 80 0 c44 0 80 -2 80 -5z"/>
</g>
</svg>
